{"title":"The Selfish Giant 2013 BRRip XViD-NO1KNOWS","uid":9534758,"size":1460701924,"categoryP":"video","categoryS":"movies","magnet":"?xt=urn:btih:ff7f7f0a0a22c9c375e8445c4b9cdd26c9018129&amp;dn=The+Selfish+Giant+2013+BRRip+XViD-NO1KNOWS&amp;tr=udp%3A%2F%2Ftracker.openbittorrent.com%3A80&amp;tr=udp%3A%2F%2Fopen.demonii.com%3A1337&amp;tr=udp%3A%2F%2Ftracker.coppersurfer.tk%3A6969&amp;tr=udp%3A%2F%2Fexodus.desync.com%3A6969","seeders":1,"leechers":0,"uploader":"HeroMaster","files":-1,"time":1390910052,"description":":::::::: NO1KNOWS PRESENTS ::::::::\n\n\n:::: The Selfish Giant 2013 BRRip XViD-NO1KNOWS ::::\n\n\n::Information::\n\n\nThe Selfish Giant 2013 BRRip\n\n\nSource : AMIABLE...Thanks\n\n\nGeneral\nComplete name : The.Selfish.Giant.2013. BRRip XViD NO1KNOWS.avi\nFormat : AVI\nFormat/Info : Audio Video Interleave\nFile size : 1.36 GiB\nDuration : 1h 30mn\nOverall bit rate : 2 150 Kbps\nWriting library : VirtualDub build 35491/release\n\nVideo\nID : 0\nFormat : MPEG-4 Visual\nFormat profile : Advanced Simple@L5\nFormat settings, BVOP : 2\nFormat settings, QPel : No\nFormat settings, GMC : No warppoints\nFormat settings, Matrix : Default (H.263)\nMuxing mode : Packed bitstream\nCodec ID : XVID\nCodec ID/Hint : XviD\nDuration : 1h 30mn\nBit rate : 1 885 Kbps\nWidth : 720 pixels\nHeight : 384 pixels\nDisplay aspect ratio : 1.85:1\nFrame rate : 24.000 fps\nColor space : YUV\nChroma subsampling : 4:2:0\nBit depth : 8 bits\nScan type : Progressive\nCompression mode : Lossy\nBits/(Pixel*Frame) : 0.284\nStream size : 1.19 GiB (88%)\nWriting library : XviD 64\n\nAudio\nID : 1\nFormat : AC-3\nFormat/Info : Audio Coding 3\nMode extension : CM (complete main)\nFormat settings, Endianness : Big\nCodec ID : 2000\nDuration : 1h 30mn\nBit rate mode : Constant\nBit rate : 256 Kbps\nChannel count : 6 channels\nChannel positions : Front: L C R, Side: L R, LFE\nSampling rate : 48.0 KHz\nBit depth : 16 bits\nCompression mode : Lossy\nStream size : 166 MiB (12%)\nAlignment : Aligned on interleaves\nInterleave, duration : 42 ms (1.00 video frame)\nInterleave, preload duration : 512 ms\n\n\n::IMDB::\n\n &lt;a href=&quot;\nhttp://www.imdb.com/title/tt2304426/&quot; rel=&quot;nofollow&quot; target=&quot;_NEW&quot;&gt;\nhttp://www.imdb.com/title/tt2304426/&lt;/a&gt;\n\n\n::Greetz and Respect::\n\n\nALL CREDIT Goes to NO1KNOWS for Encoding and ABG for Distribution.\n\n\n:;Poster::\n\n &lt;a href=&quot;\nhttp://i.imgur.com/zNZjpDI.jpg&quot; rel=&quot;nofollow&quot; target=&quot;_NEW&quot;&gt;\nhttp://i.imgur.com/zNZjpDI.jpg&lt;/a&gt;\n\n\n::Screenshots::\n\n &lt;a href=&quot;\nhttp://i.imgur.com/uwyWGaN.png&quot; rel=&quot;nofollow&quot; target=&quot;_NEW&quot;&gt;\nhttp://i.imgur.com/uwyWGaN.png&lt;/a&gt;\n\n\nSEED AND ENJOY!","torrent":{"xt":"urn:btih:ff7f7f0a0a22c9c375e8445c4b9cdd26c9018129","amp;dn":"The+Selfish+Giant+2013+BRRip+XViD-NO1KNOWS","amp;tr":["udp%3A%2F%2Ftracker.openbittorrent.com%3A80","udp%3A%2F%2Fopen.demonii.com%3A1337","udp%3A%2F%2Ftracker.coppersurfer.tk%3A6969","udp%3A%2F%2Fexodus.desync.com%3A6969"],"infoHash":"ff7f7f0a0a22c9c375e8445c4b9cdd26c9018129","infoHashBuffer":{"type":"Buffer","data":[255,127,127,10,10,34,201,195,117,232,68,92,75,156,221,38,201,1,129,41]},"announce":[],"urlList":[]}}